<svg width="88" height="32" viewBox="0 0 88 32" fill="none" xmlns="http://www.w3.org/2000/svg">
<path fill-rule="evenodd" clip-rule="evenodd" d="M37 20.5C40.7862 18.7617 44.0001 14.9389 44.0001 10.5C44.0001 4.42489 39.0752 5.08635e-07 33.0001 1.06811e-05L32.9957 3.49095e-06L21 0V31.9999L27 32V21H29.5L36.1667 31.9999H44.0001L37 20.5ZM33.0001 15C35.2093 15 38 13 38 10.5C38 8.00001 35.2093 6.00001 33.0001 6.00001L27 6.00001V15L33.0001 15Z" fill="#1D6097"/>
<path d="M21 0L0 1.06811e-05V31.9999L6 31.9999V21L14 21.002V15L6 15L5.99999 6.00002L21 6.00001V0Z" fill="#1D6097"/>
<path d="M49.0001 22C48.4478 22 48.0001 21.5522 48.0001 21C48.0001 20.4477 48.4478 20 49.0001 20L56.0001 20V16L49.0001 16C46.2387 16 44.0001 18.2385 44.0001 21C44.0001 23.7614 46.2387 25.9999 49.0001 25.9999L51.0001 26C51.5524 26 52.0001 26.4477 52.0001 27C52.0001 27.5522 51.5524 28 51.0001 28L44.0001 27.9999L44.0001 31.9999L51.0001 31.9999C53.7615 31.9999 56.0001 29.7614 56.0001 27C56.0001 24.2385 53.7615 22 51.0001 22L49.0001 22Z" fill="#1D6097"/>
<path fill-rule="evenodd" clip-rule="evenodd" d="M72 24C72 28.4182 68.4183 31.9999 64 31.9999C59.5818 31.9999 56.0001 28.4182 56.0001 24C56.0001 19.5817 59.5818 16 64 16C68.4183 16 72 19.5817 72 24ZM68 24C68 26.2091 66.2092 27.9999 64 27.9999C61.7909 27.9999 60.0001 26.2091 60.0001 24C60.0001 21.7908 61.7909 20 64 20C66.2092 20 68 21.7908 68 24Z" fill="#1D6097"/>
<path d="M72 24L72 22H74V21C74 18.2385 76.2386 16 79 16L80 16V20H79C78.4477 20 78 20.4477 78 21V22H80L82 22.0004V16H86V22.0004H88V26.0004H86V26.9999H82V26.0004H80L78 25.9999V31.9999H74V25.9999H72L72 24Z" fill="#1D6097"/>
<path d="M88 27.9999L87 27.9999C86.4477 28 86 27.5522 86 26.9999H82C82 29.7614 84.2386 31.9999 87 31.9999H88V27.9999Z" fill="#1D6097"/>
<path fill-rule="evenodd" clip-rule="evenodd" d="M83.4035 8.91508L83.4283 8.93141C83.8719 9.2023 84.3667 9.63156 84.8619 10.0612C85.509 10.6226 86.1568 11.1847 86.6927 11.3953C87.2758 11.6246 87.4252 12.2185 87.5845 12.8515C87.6836 13.2454 87.7865 13.6543 88 14H84.0897V13.3442H83.5397V14H83.5075L83.2846 13.4488L82.7462 13.3091V14H82.5069V13.4633L82.0256 13.2898V14H80.4031L82.6499 11.9362C82.4446 11.7325 82.1988 11.5206 81.9445 11.3014C81.0499 10.5302 80.0506 9.66882 80.3424 8.76085L83.4035 8.91508ZM83.5183 11.6985L83.8621 11.1862L83.5183 11.2043V11.6985Z" fill="#1D6097"/>
<path fill-rule="evenodd" clip-rule="evenodd" d="M77.5813 14L77.4869 13.8837L77.2483 13.5813C77.1795 13.5746 77.1142 13.5674 77.051 13.5595L77.0145 13.5547L76.9368 13.548L76.8832 13.5396L76.811 13.5281L76.7615 13.519L76.6927 13.5063L76.648 13.4966L76.5793 13.4821L76.4761 13.4555L76.4418 13.4452C76.4205 13.4392 76.3991 13.4331 76.3792 13.4265L76.3524 13.4174L76.2884 13.395L76.2795 13.3914C76.2049 13.3628 76.1327 13.3294 76.0636 13.2916C76.0603 13.2895 76.0569 13.2877 76.0533 13.2861L76.0045 13.2559L75.9838 13.2432C75.9737 13.2371 75.9643 13.2305 75.9548 13.224C75.9501 13.2207 75.9453 13.2174 75.9405 13.2142L75.9178 13.1978L75.8793 13.1676L75.8559 13.1494L75.8202 13.1186L75.7975 13.098L75.7679 13.0642L75.7459 13.0424L75.7143 13.0079L75.693 12.9843L75.6634 12.9486L75.6428 12.9232L75.6139 12.8851C75.6112 12.8818 75.6085 12.8783 75.6058 12.8748C75.6017 12.8695 75.5977 12.864 75.594 12.8585L75.5658 12.8186L75.5465 12.7902C75.5369 12.7769 75.528 12.763 75.519 12.7484L75.4998 12.7188L75.473 12.6747L75.4544 12.6438L75.4276 12.5972C75.4214 12.5864 75.4152 12.5755 75.4083 12.5646L75.3815 12.5156L75.363 12.4823L75.3348 12.4303L75.3176 12.397C75.3109 12.3848 75.3044 12.3726 75.2979 12.3603C75.2944 12.3536 75.2909 12.3469 75.2873 12.3402C75.2818 12.3299 75.2763 12.3196 75.2715 12.3093C75.2598 12.2876 75.2488 12.2658 75.2378 12.244L75.2289 12.2271L75.1044 11.9852L75.0886 11.9543L75.0515 11.8829C75.0439 11.8696 75.037 11.8563 75.0302 11.8424C75.0171 11.817 75.0033 11.791 74.9896 11.7656L74.9697 11.7275L74.905 11.6065L76.0134 11.7723L75.5225 11.3561L75.2743 11.2957L74.3364 11.6223L73.9754 11.2497H72.9227L72.8113 10.8082H74.7366L74.5358 10.914H73.4137L73.4535 11.0906H74.7187L75.2804 11.2781L75.5362 10.5656L76.8901 10.5608C76.5855 10.0769 76.4397 9.94812 75.6923 9.74369C75.3155 9.64087 75.0116 9.46184 75.1917 9.13887L73.0733 7.73507C72.8973 6.52543 72.3314 6.33975 71.4465 6.07423C71.2453 5.92653 71.0584 5.7926 70.8824 5.66647C70.0355 5.05966 69.4402 4.6331 68.7195 3.72026C68.1495 3.00052 67.5128 2.23361 66.8631 1.72435C66.5344 1.46609 66.3254 1.304 66.4636 1.80902L67.5314 5.69743C67.6318 6.10931 67.5713 6.20245 67.4104 6.3216L67.5713 6.72804C67.6256 6.86534 67.5672 7.17622 67.4104 7.27239L68.1935 8.38526C68.472 8.77053 68.492 8.9296 68.2678 9.13524C67.5067 9.83556 68.351 10.6063 69.0104 11.2082C69.1802 11.3632 69.2186 11.9624 69.3333 12.0909L69.676 13.4531L69.6808 13.493L69.7431 14H77.5813ZM72.3892 8.33687L71.6865 7.63044L71.6885 8.0901H68.8351L68.976 8.92053L68.6948 9.55619L69.2167 9.30822L69.1362 9.06145L69.5378 8.81408H71.8274L72.3892 8.33687ZM68.8096 7.93104L69.6588 7.6129H68.7292L68.8096 7.93104ZM68.8756 5.4434L69.3377 5.22809L68.5745 5.23111L68.8756 5.4434ZM69.3157 6.90647L69.2359 6.55325L68.5937 6.64155L68.7546 7.11997L69.3157 6.90647ZM68.7739 9.80296L68.6735 10.1386L68.8756 10.5269H69.3975L69.2167 10.1562H70.7637L69.8451 10.0231L69.599 9.80296H68.7739ZM69.3333 11.4545H70L71.0539 11.2164H70.3422L70.2212 10.8457H69.1775L69.3333 11.4545ZM71.0786 11.2182L71.4802 11.4481L72.2833 11.2182H71.0786ZM71.0133 10.1713L72.4951 10.1743L72.6305 9.8084H71.21L71.0133 10.1713ZM73.3497 10.0249L72.9296 9.81143L72.8038 10.187L73.3497 10.0249Z" fill="#1D6097"/>
<path fill-rule="evenodd" clip-rule="evenodd" d="M69.1804 14L69.2029 13.8492L67.8965 11.7928L67.6813 11.4529L67.4482 11.3223L66.663 11.4759L66.0029 11.1451L66.4643 10.7743H66.9758L66.9463 11.081H67.4386L67.1278 10.591C66.8962 10.4238 66.6843 10.2366 66.4952 10.0322L65.2198 9.96324L65.0417 9.78542H66.3295C66.2525 9.62799 66.2261 9.45497 66.2532 9.28523L65.9699 8.92053L59.1581 8.8667L58.9476 8.74573H57.3091L54.9796 9.47152L54.5128 10.0521L54.9796 9.73643H57.8111L57.6736 9.8955L55.8659 10.178L56.0069 10.2844L57.6282 10.0255L57.4769 10.2155L55.1034 10.7259L54.7507 10.3546L54.2879 10.8124L53.4573 10.6376V10.6298L53.1582 10.7259L52.4149 10.0189L52.5153 9.04754L53.0008 9.46426L53.2036 8.76267L53.207 8.76569L53.2875 8.36348L54.2625 8.20018L66.663 8.27273C66.6362 8.09854 66.3873 7.84636 66.2106 7.63649C66.1721 7.59052 66.1342 7.54395 66.0978 7.49617V7.49254C66.0179 7.39701 65.952 7.29296 65.9018 7.18287L65.8977 7.17561V7.16231C65.8623 7.0877 65.8349 7.01035 65.8159 6.93127L65.8156 6.92754C65.8156 6.92555 65.8157 6.92357 65.8159 6.92159V6.91372V6.9101L65.8133 6.90058C65.808 6.88089 65.8028 6.86147 65.798 6.84115L65.8049 6.8478C65.7766 6.66871 65.7883 6.48648 65.8393 6.31132L66.6025 5.60489L66.5736 5.44522L65.9699 5.19845H66.5296L66.3385 4.20956L65.8833 4.30996H64.0364L63.5744 4.11279H66.3247L66.2106 3.50797C66.0937 2.88258 65.9073 2.41324 65.6213 2.26325L65.8221 3.58781L65.0018 2.46284L64.5762 2.66969L63.7511 2.45739L63.1687 2.61646L62.9047 2.29833H64.8835L63.8419 0.867315V0.191729L64.0522 0.177213C65.2211 0.348983 66.2346 0.381643 67.486 0.338096C68.2472 0.449988 72.5267 1.98624 75.462 3.2358L79.2244 5.91456C77.8032 4.75693 75.9687 3.27814 75.3925 3.02411C72.2372 1.64391 68.5532 0.293339 67.429 0.141528C66.2601 0.162697 65.2026 0.141528 64.0351 0L63.8143 0.0175398C62.3601 0.396159 60.9086 1.23989 59.2798 2.40235L57.8503 3.42209C57.3622 3.77285 56.9251 4.07739 56.5303 4.3525C54.4865 5.77657 53.575 6.41168 52.5896 8.58424L50.9628 9.27314H50.1212L49.4185 9.71466H48.7742C48.5583 9.71466 48.2173 9.72373 48.044 9.83562L46.4447 10.8808L46.3189 11.0078L45.0193 12.2936L44.3964 12.3287L44 14H50.398C50.3679 13.7925 50.2887 13.5791 50.1466 13.3636L49.4185 12.2585L49.0575 12.2053L48.2743 11.4795L48.2943 11.038L48.363 11.0023C48.7886 10.79 49.2136 10.6606 49.6392 10.6666L48.746 9.91062L49.2906 9.92634H49.875V9.69712H50.465L50.5213 9.48543H51.1244L51.6669 9.88159V9.87373L52.1213 10.213L52.4308 10.4392L51.9495 10.8808L52.3091 11.1765L52.5717 11.393C52.5856 11.4163 52.6028 11.4461 52.623 11.4811C52.8299 11.8393 53.351 12.7415 53.8389 12.7884L54.6715 14H55.6733L54.1504 11.6223H54.213L54.5925 11.618L54.3175 11.1814L54.2975 10.8638L54.9164 11.8436L54.9226 11.8527H55.6218C55.7335 11.9809 55.86 12.1422 55.9975 12.3175C56.4702 12.9202 57.0728 13.6884 57.6502 13.8486L57.785 14H69.1804ZM64.6188 2.01345H63.5874L63.2588 2.14349H64L64.6188 2.01345ZM63.0525 3.40878L63.6748 3.23217H62.651L63.0525 3.40878ZM65.1606 3.95796L65.5422 3.65555L62.3697 3.65918L63.199 3.95796H65.1606ZM46.9088 11.1451L47.3076 11.8872L47.5084 13.3533L47.5311 11.1451L47.7724 10.9328H47.1295L46.9088 11.1451ZM61.8135 9.33241L60.8825 9.11407H59.3719L59.6944 9.33241H61.8135ZM56.5844 9.07899L56.988 9.43523L58.1562 9.24653L58.3391 9.07899H56.5844ZM53.8754 10.8045L53.5886 10.7483L53.1754 10.9062V11.3737L53.3961 11.5328V12.0989L53.8486 12.7442L53.8706 11.3332V11.1674L53.8754 10.865V10.8045ZM60.1805 10.8808L60.5422 11.11L62.0885 10.7392H58.936L59.8298 11.2436L60.1805 10.8808ZM61.3054 10.0679H61.3858L62.3931 9.73462H58.4739L59.8793 10.1235L60.3214 9.94691L61.3054 10.0679ZM64.2771 10.7392L64.9798 11.11L65.5017 10.7392H64.2771Z" fill="#1D6097"/>
</svg>
