<svg width="20" height="20" viewBox="0 0 20 20" fill="none" xmlns="http://www.w3.org/2000/svg">
<path d="M1.9678 4L15.8883 18.0588M1.9678 4C2.48572 3.38832 3.2593 3 4.12358 3H8.82946M1.9678 4C1.55124 4.49196 1.30005 5.12841 1.30005 5.82353V16.1765C1.30005 17.7359 2.56419 19 4.12358 19H14.4765C16.0359 19 17.3 17.7359 17.3 16.1765V11.9412M8.82946 11.9412L2.71181 18.0588M15.5 4.2V4.13984M18.7 4.13043C18.7 6.21739 15.5 9 15.5 9C15.5 9 12.3 6.21739 12.3 4.13043C12.3 2.40154 13.7327 1 15.5 1C17.2674 1 18.7 2.40154 18.7 4.13043Z" stroke="#2C8BD8" stroke-width="2" stroke-linecap="round" stroke-linejoin="round"/>
</svg>
