<svg width="18" height="19" viewBox="0 0 18 19" fill="none" xmlns="http://www.w3.org/2000/svg">
<path d="M15.6383 7.2267L11.5103 7.2267M11.5103 7.2267L11.5084 3.57905M11.5103 7.2267L16.2001 2.53693M15.3274 14.767C15.3274 14.767 14.4335 15.645 14.2144 15.9024C13.8575 16.2832 13.437 16.4631 12.8858 16.4631C12.8328 16.4631 12.7763 16.4631 12.7233 16.4595C11.6739 16.3925 10.6986 15.9835 9.96722 15.6344C7.96731 14.6682 6.2112 13.2965 4.7519 11.5581C3.547 10.1088 2.74138 8.76889 2.20784 7.33021C1.87923 6.45218 1.75909 5.7681 1.81209 5.12281C1.84743 4.71024 2.00643 4.3682 2.29971 4.07553L3.5046 2.87309C3.67774 2.71089 3.86148 2.62273 4.04168 2.62273C4.26428 2.62273 4.44449 2.75673 4.55756 2.86957C4.56109 2.87309 4.56463 2.87662 4.56816 2.88015C4.7837 3.08114 4.98864 3.28918 5.20417 3.51133C5.31371 3.62417 5.42678 3.73701 5.53985 3.85338L6.50447 4.81603C6.87901 5.1898 6.87901 5.53537 6.50447 5.90915C6.402 6.01141 6.30307 6.11367 6.2006 6.2124C5.90379 6.51565 6.13695 6.28297 5.82954 6.55801C5.82248 6.56507 5.81541 6.56859 5.81187 6.57565C5.508 6.8789 5.56454 7.1751 5.62814 7.37609C5.63167 7.38667 5.6352 7.39725 5.63874 7.40783C5.88961 8.01433 6.24295 8.58558 6.78003 9.26613L6.78357 9.26966C7.75879 10.4686 8.78701 11.403 9.92124 12.1188C10.0661 12.2105 10.2145 12.2846 10.3558 12.3551C10.4831 12.4186 10.6032 12.4785 10.7057 12.542C10.7198 12.549 10.7339 12.5596 10.7481 12.5667C10.8682 12.6266 10.9813 12.6548 11.0979 12.6548C11.3911 12.6548 11.5749 12.4714 11.6349 12.4115L12.3275 11.7203C12.4477 11.6004 12.6385 11.4559 12.8611 11.4559C13.0802 11.4559 13.2604 11.5934 13.3699 11.7133C13.3734 11.7168 13.3734 11.7168 13.377 11.7203L15.3239 13.6633C15.6878 14.0229 15.3274 14.767 15.3274 14.767Z" stroke="white" stroke-width="2" stroke-linecap="round" stroke-linejoin="round"/>
</svg>
