<svg width="140" height="78" viewBox="0 0 140 78" fill="none" xmlns="http://www.w3.org/2000/svg">
<path fill-rule="evenodd" clip-rule="evenodd" d="M58.8636 32.4583C64.8871 29.7061 70.0001 23.6533 70.0001 16.625C70.0001 7.00608 62.1651 8.05339e-07 52.5002 1.69118e-05L52.4931 5.52734e-06L33.4091 0V50.6665L42.9545 50.6666V33.25H46.9318L57.538 50.6665H70.0001L58.8636 32.4583ZM52.5002 23.7499C56.0147 23.7499 60.4545 20.5833 60.4545 16.625C60.4545 12.6667 56.0147 9.50002 52.5002 9.50002L42.9545 9.50002V23.75L52.5002 23.7499Z" fill="#1D6097"/>
<path d="M33.4091 0L0 1.69118e-05V50.6666L9.54545 50.6666V33.2499L22.2727 33.2532V23.75L9.54545 23.7499L9.54544 9.50002L33.4091 9.50002V0Z" fill="#1D6097"/>
<path d="M77.9547 34.8333C77.076 34.8333 76.3637 34.1244 76.3637 33.2499C76.3637 32.3755 77.076 31.6666 77.9547 31.6666L89.091 31.6666V25.3333L77.9547 25.3333C73.5615 25.3333 70.0001 28.8777 70.0001 33.2499C70.0001 37.6222 73.5615 41.1666 77.9547 41.1666L81.1365 41.1666C82.0151 41.1666 82.7274 41.8755 82.7274 42.7499C82.7274 43.6244 82.0151 44.3333 81.1365 44.3333L70.0001 44.3332L70.0001 50.6665L81.1365 50.6666C85.5296 50.6666 89.091 47.1222 89.091 42.7499C89.091 38.3777 85.5296 34.8333 81.1365 34.8333L77.9547 34.8333Z" fill="#1D6097"/>
<path fill-rule="evenodd" clip-rule="evenodd" d="M114.545 37.9999C114.545 44.9955 108.847 50.6666 101.818 50.6666C94.7892 50.6666 89.091 44.9955 89.091 37.9999C89.091 31.0043 94.7892 25.3333 101.818 25.3333C108.847 25.3333 114.545 31.0043 114.545 37.9999ZM108.182 37.9999C108.182 41.4977 105.333 44.3332 101.818 44.3332C98.3037 44.3332 95.4546 41.4977 95.4546 37.9999C95.4546 34.5021 98.3037 31.6666 101.818 31.6666C105.333 31.6666 108.182 34.5021 108.182 37.9999Z" fill="#1D6097"/>
<path d="M114.545 37.9999L114.546 34.8333H117.727V33.2499C117.727 28.8777 121.289 25.3333 125.682 25.3333L127.273 25.3333V31.6666H125.682C124.803 31.6666 124.091 32.3755 124.091 33.2499V34.8333H127.273L130.455 34.834V25.3333H136.818V34.834H140V41.1674H136.818V42.7499H130.455V41.1674H127.273L124.091 41.1666V50.6666H117.727V41.1666H114.546L114.545 37.9999Z" fill="#1D6097"/>
<path d="M140 44.3333L138.409 44.3332C137.53 44.3333 136.818 43.6244 136.818 42.7499H130.455C130.455 47.1222 134.016 50.6666 138.409 50.6666H140V44.3333Z" fill="#1D6097"/>
<path fill-rule="evenodd" clip-rule="evenodd" d="M132.687 14.1155L132.727 14.1414C133.433 14.5703 134.22 15.25 135.008 15.9303C136.037 16.8191 137.068 17.7091 137.92 18.0426C138.848 18.4057 139.086 19.346 139.339 20.3482C139.497 20.9718 139.66 21.6194 140 22.1667H127.914L131.489 18.8989C131.162 18.5765 130.771 18.2409 130.366 17.8938C128.943 16.6729 127.353 15.309 127.817 13.8713L132.687 14.1155Z" fill="#1D6097"/>
<path fill-rule="evenodd" clip-rule="evenodd" d="M123.425 22.1667L123.275 21.9825L122.895 21.5037C122.786 21.4932 122.682 21.4817 122.581 21.4692L122.523 21.4616L122.4 21.451L122.314 21.4376L122.199 21.4194L122.121 21.4051L122.011 21.385L121.94 21.3696L121.831 21.3467L121.667 21.3045L121.612 21.2882C121.578 21.2787 121.544 21.2691 121.512 21.2585L121.47 21.2442L121.368 21.2088L121.354 21.203C121.235 21.1577 121.12 21.1049 121.01 21.045C121.005 21.0418 121 21.0389 120.994 21.0364L120.916 20.9885L120.883 20.9684C120.867 20.9588 120.852 20.9484 120.837 20.9379C120.83 20.9327 120.822 20.9275 120.814 20.9224L120.778 20.8966L120.717 20.8487L120.68 20.82L120.623 20.7711L120.587 20.7386L120.54 20.6849L120.505 20.6505L120.455 20.5959L120.421 20.5585L120.374 20.502L120.341 20.4618L120.295 20.4015C120.291 20.3961 120.286 20.3907 120.282 20.3851C120.275 20.3767 120.269 20.368 120.263 20.3593L120.218 20.2961L120.188 20.2511C120.172 20.23 120.158 20.208 120.144 20.185L120.113 20.1381L120.071 20.0682L120.041 20.0194L119.998 19.9456C119.989 19.9284 119.979 19.9112 119.968 19.8939L119.925 19.8163L119.896 19.7637L119.851 19.6813L119.823 19.6287C119.813 19.6093 119.803 19.59 119.792 19.5704C119.787 19.5599 119.781 19.5493 119.775 19.5386C119.767 19.5224 119.758 19.5061 119.75 19.4898C119.732 19.4553 119.714 19.4208 119.697 19.3864L119.682 19.3596L119.484 18.9765L119.459 18.9277L119.4 18.8147C119.388 18.7936 119.377 18.7725 119.366 18.7505C119.345 18.7103 119.324 18.6691 119.302 18.6289L119.27 18.5686L119.167 18.377L120.93 18.6394L120.149 17.9806L119.754 17.8848L118.262 18.4019L117.688 17.812H116.013L115.836 17.1129H118.899L118.58 17.2805H116.794L116.858 17.5602H118.871L119.764 17.857L120.171 16.7289L122.325 16.7213C121.841 15.9552 121.609 15.7512 120.42 15.4275C119.82 15.2647 119.337 14.9812 119.623 14.4699L116.253 12.2472C115.973 10.3319 115.073 10.0379 113.665 9.61753C113.345 9.38367 113.047 9.17162 112.767 8.9719C111.42 8.01113 110.473 7.33574 109.327 5.89042C108.42 4.75083 107.407 3.53655 106.373 2.73022C105.85 2.32131 105.518 2.06466 105.738 2.86429L107.436 9.02093C107.596 9.67307 107.5 9.82055 107.244 10.0092L107.5 10.6527C107.586 10.8701 107.493 11.3623 107.244 11.5146L108.49 13.2767C108.933 13.8867 108.964 14.1385 108.608 14.4641C107.397 15.573 108.74 16.7932 109.789 17.7464C110.059 17.9918 110.31 18.2195 110.493 18.423L110.532 18.7381L110.848 21.3007L110.856 21.3639L110.955 22.1667H123.425ZM115.165 13.2L114.047 12.0815L114.05 12.8093H109.51L109.735 14.1242L109.287 15.1306L110.117 14.738L109.989 14.3473L110.628 13.9556H114.271L115.165 13.2ZM109.413 15.5214L109.253 16.0528L109.575 16.6676H110.405L110.117 16.0806H112.579L111.117 15.8699L110.726 15.5214H109.413ZM110.055 17.1723L111.076 18.2908L113.04 17.7593L111.716 17.1723H110.055ZM112.976 16.1046L115.333 16.1093L115.549 15.53H113.289L112.976 16.1046Z" fill="#1D6097"/>
<path fill-rule="evenodd" clip-rule="evenodd" d="M110.06 22.1667L110.096 21.9279L108.017 18.672L107.675 18.1338L107.304 17.9269L106.055 18.1702L105.005 17.6463L105.739 17.0593H106.552L106.505 17.5448H107.289L106.794 16.7692C106.426 16.5044 106.089 16.208 105.788 15.8843L103.759 15.7751L103.475 15.4936H105.524C105.402 15.2443 105.36 14.9704 105.403 14.7016V13.8761L94.1151 14.0389L93.7804 13.8474H91.1736L87.4676 14.9966L86.7248 15.9159L87.4676 15.416H91.9722L91.7534 15.6679L88.8776 16.1151L89.1018 16.2836L91.6812 15.8738L91.4405 16.1745L87.6645 16.9827L87.1033 16.3947L86.3671 17.1196L85.0457 16.8429V16.8304L84.5699 16.9827L83.3874 15.8632L83.5471 14.3253L84.3194 14.9851L84.6421 13.8742L84.6476 13.879L84.7755 13.2422L86.3267 12.9836H105.805C105.763 12.7078 105.616 12.4234 105.335 12.0911C105.274 12.0183 105.214 11.9446 105.156 11.8689V11.8632C105.028 11.7119 104.924 11.5472 104.844 11.3729L104.837 11.3614V11.3403C104.781 11.2222 104.737 11.0997 104.707 10.9745L104.707 10.9686L104.707 10.9592V10.9467V10.941L104.703 10.9259C104.695 10.8947 104.686 10.864 104.679 10.8318L104.69 10.8423C104.645 10.5588 104.663 10.2703 104.744 9.99293L105.959 8.87441L105.913 8.62159L104.952 8.23088H105.843L105.538 6.66514L104.814 6.82411H101.876L101.141 6.51192H105.517L105.335 5.55429C105.149 4.56409 104.853 3.82097 104.398 3.58347L104.717 5.68069L103.412 3.89949L102.735 4.227L101.422 3.89087L100.496 4.14273L100.076 3.63901H103.224L101.567 1.37325V0.30357L101.901 0.280587C103.761 0.552556 105.373 0.604268 107.364 0.535318C108.575 0.712481 115.383 3.14487 120.053 5.12335L126.039 9.36472C123.778 7.5318 120.859 5.19038 119.943 4.78818C114.923 2.60285 109.062 0.464453 107.273 0.224087C105.414 0.257604 103.731 0.224087 101.874 0L101.523 0.0277714C99.2093 0.627251 96.9001 1.96315 94.3087 3.80373L92.0345 5.4183C91.2581 5.97367 90.5627 6.45587 89.9346 6.89146C86.6831 9.14623 85.2329 10.1518 83.6653 13.5917L81.0771 14.6825H79.7382L78.6203 15.3815H77.5953C77.2519 15.3815 76.7093 15.3959 76.4336 15.5731L73.8893 17.2279L73.6891 17.429L71.6217 19.4649L70.6306 19.5204L70 22.1667H80.1786C80.1307 21.8381 80.0047 21.5003 79.7787 21.159L78.6203 19.4094L78.046 19.3251L76.8001 18.1759L76.8318 17.4768L76.9412 17.4203C77.6183 17.0842 78.2943 16.8793 78.9714 16.8889L77.5505 15.6918L78.4168 15.7167H79.3466V15.3538H80.2852L80.3749 15.0186H81.3342L82.1973 15.6458V15.6334L82.9203 16.1706L83.4126 16.5288L82.6469 17.2279L83.219 17.6961L83.6368 18.039C83.6589 18.0759 83.6863 18.1231 83.7184 18.1785C84.0476 18.7456 84.8765 20.1741 85.6528 20.2482L86.9774 22.1667H88.5711L86.1484 18.4019H86.2479L86.8517 18.3952L86.4142 17.7038L86.3825 17.201L87.3669 18.7524L87.3768 18.7668H88.4893C88.667 18.9698 88.8682 19.2252 89.087 19.5027C89.839 20.4569 90.7976 21.6733 91.7162 21.927L91.9307 22.1667H110.06ZM102.803 3.18797H101.162L100.639 3.39386H101.818L102.803 3.18797ZM100.311 5.39723L101.301 5.1176H99.672L100.311 5.39723ZM103.665 6.26677L104.272 5.78795L99.2246 5.79369L100.544 6.26677H103.665ZM74.6276 17.6463L75.2621 18.8214L75.5815 21.1427L75.6176 17.6463L76.0015 17.3102H74.9788L74.6276 17.6463ZM98.3396 14.7763L96.8585 14.4306H94.4553L94.9683 14.7763H98.3396ZM90.0207 14.3751L90.6628 14.9391L92.5213 14.6403L92.8123 14.3751H90.0207ZM85.7108 17.1072L85.2547 17.0181L84.5972 17.2681V18.0083L84.9484 18.2602V19.1565L85.6682 20.1783L85.7032 17.9442V17.6818L85.7108 17.203V17.1072ZM95.7417 17.2279L96.3171 17.5908L98.7772 17.0038H93.7618L95.1838 17.8024L95.7417 17.2279ZM97.5313 15.9408H97.6592L99.2618 15.4131H93.0267L95.2626 16.0289L95.9659 15.7493L97.5313 15.9408ZM102.259 17.0038L103.377 17.5908L104.207 17.0038H102.259Z" fill="#1D6097"/>
<path d="M0 58.5833L140 58.5833V60.1666L0 60.1666L0 58.5833Z" fill="#1D6097"/>
<path d="M0 76V68.0833H1.14656V71.5237H4.93503V68.0833H6.0853V76H4.93503V72.5481H1.14656V76H0Z" fill="white"/>
<path d="M8.39698 76H7.17992L9.91459 68.0833H11.2393L13.9739 76H12.7569L10.6085 69.5213H10.5491L8.39698 76ZM8.60106 72.8998H12.5491V73.9049H8.60106V72.8998Z" fill="white"/>
<path d="M17.8366 76V68.0833H20.6195C21.1588 68.0833 21.6053 68.1761 21.959 68.3617C22.3128 68.5446 22.5775 68.7933 22.7531 69.1077C22.9287 69.4195 23.0165 69.7713 23.0165 70.163C23.0165 70.4929 22.9584 70.7712 22.8421 70.998C22.7259 71.2222 22.57 71.4026 22.3746 71.5391C22.1817 71.6731 21.9689 71.7711 21.7364 71.8329V71.9102C21.9887 71.9231 22.2349 72.0082 22.4748 72.1654C22.7172 72.32 22.9176 72.5403 23.0759 72.8264C23.2342 73.1124 23.3134 73.4603 23.3134 73.8701C23.3134 74.2747 23.2219 74.638 23.0388 74.9602C22.8582 75.2797 22.5787 75.5336 22.2002 75.7217C21.8217 75.9072 21.3381 76 20.7494 76H17.8366ZM18.9832 74.9756H20.6381C21.1872 74.9756 21.5806 74.8648 21.818 74.6432C22.0555 74.4216 22.1742 74.1445 22.1742 73.8121C22.1742 73.5621 22.1136 73.3328 21.9924 73.124C21.8712 72.9153 21.6981 72.7491 21.473 72.6254C21.2503 72.5017 20.9856 72.4398 20.6789 72.4398H18.9832V74.9756ZM18.9832 71.5082H20.5193C20.7766 71.5082 21.0079 71.4567 21.2132 71.3536C21.421 71.2505 21.5855 71.1062 21.7067 70.9207C21.8304 70.7325 21.8922 70.5109 21.8922 70.2558C21.8922 69.9285 21.7822 69.654 21.562 69.4324C21.3419 69.2108 21.0042 69.1 20.549 69.1H18.9832V71.5082Z" fill="white"/>
<path d="M24.6733 76V68.0833H29.4377V69.1116H25.8199V71.5237H29.189V72.5481H25.8199V74.9718H29.4822V76H24.6733Z" fill="white"/>
<path d="M30.9692 76V68.0833H33.6779C34.2691 68.0833 34.7589 68.1954 35.1473 68.4196C35.5356 68.6438 35.8263 68.9505 36.0192 69.3396C36.2122 69.7262 36.3087 70.1617 36.3087 70.6462C36.3087 71.1333 36.211 71.5714 36.0155 71.9605C35.8226 72.347 35.5307 72.6537 35.1398 72.8805C34.7515 73.1047 34.2629 73.2168 33.6742 73.2168H31.8115V72.204H33.5703C33.9438 72.204 34.2468 72.137 34.4794 72.003C34.7119 71.8664 34.8826 71.6809 34.9914 71.4464C35.1003 71.2119 35.1547 70.9451 35.1547 70.6462C35.1547 70.3473 35.1003 70.0818 34.9914 69.8499C34.8826 69.618 34.7107 69.4363 34.4757 69.3049C34.2431 69.1734 33.9364 69.1077 33.5554 69.1077H32.1157V76H30.9692Z" fill="white"/>
<path d="M37.753 68.0833H38.8884V74.964H41.3968V68.0833H42.5322V74.964H45.0331V68.0833H46.1648V76H37.753V68.0833Z" fill="white"/>
<path d="M47.9385 68.0833H49.0739V73.8971H49.1444L53.0108 68.0833H54.072V76H52.9254V70.1939H52.8549L48.996 76H47.9385V68.0833Z" fill="white"/>
<path d="M55.7445 76V68.0833H56.8911V71.5237H60.6796V68.0833H61.8298V76H60.6796V72.5481H56.8911V76H55.7445Z" fill="white"/>
<path d="M63.4996 76V68.0833H68.2639V69.1116H64.6461V71.5237H68.0153V72.5481H64.6461V74.9718H68.3085V76H63.4996Z" fill="white"/>
<path d="M72.5607 68.0833H73.6962V73.8971H73.7667L77.6331 68.0833H78.6943V76H77.5477V70.1939H77.4772L73.6183 76H72.5607V68.0833Z" fill="white"/>
<path d="M80.3668 76V68.0833H81.5134V71.5237H85.3018V68.0833H86.4521V76H85.3018V72.5481H81.5134V76H80.3668Z" fill="white"/>
<path d="M88.1219 76V68.0833H89.2684V71.5237H93.0569V68.0833H94.2072V76H93.0569V72.5481H89.2684V76H88.1219Z" fill="white"/>
<path d="M103.907 76V68.0833H106.69C107.23 68.0833 107.676 68.1761 108.03 68.3617C108.384 68.5446 108.648 68.7933 108.824 69.1077C109 69.4195 109.087 69.7713 109.087 70.163C109.087 70.4929 109.029 70.7712 108.913 70.998C108.797 71.2222 108.641 71.4026 108.445 71.5391C108.253 71.6731 108.04 71.7711 107.807 71.8329V71.9102C108.06 71.9231 108.306 72.0082 108.546 72.1654C108.788 72.32 108.988 72.5403 109.147 72.8264C109.305 73.1124 109.384 73.4603 109.384 73.8701C109.384 74.2747 109.293 74.638 109.11 74.9602C108.929 75.2797 108.65 75.5336 108.271 75.7217C107.893 75.9072 107.409 76 106.82 76H103.907ZM105.054 74.9756H106.709C107.258 74.9756 107.651 74.8648 107.889 74.6432C108.126 74.4216 108.245 74.1445 108.245 73.8121C108.245 73.5621 108.185 73.3328 108.063 73.124C107.942 72.9153 107.769 72.7491 107.544 72.6254C107.321 72.5017 107.056 72.4398 106.75 72.4398H105.054V74.9756ZM105.054 71.5082H106.59C106.847 71.5082 107.079 71.4567 107.284 71.3536C107.492 71.2505 107.656 71.1062 107.778 70.9207C107.901 70.7325 107.963 70.5109 107.963 70.2558C107.963 69.9285 107.853 69.654 107.633 69.4324C107.413 69.2108 107.075 69.1 106.62 69.1H105.054V71.5082Z" fill="white"/>
<path d="M111.386 76H110.169L112.904 68.0833H114.228L116.963 76H115.746L113.598 69.5213H113.538L111.386 76ZM111.59 72.8998H115.538V73.9049H111.59V72.8998Z" fill="white"/>
<path d="M124.803 74.9447L124.702 77.4751H123.559V76H123.025V74.9447H124.803ZM118.06 76V68.0833H119.159V74.964H122.825V68.0833H123.927V76H118.06Z" fill="white"/>
<path d="M126.06 68.0833H127.196V73.8971H127.266L131.133 68.0833H132.194V76H131.047V70.1939H130.977L127.118 76H126.06V68.0833Z" fill="white"/>
<path d="M133.866 68.0833H135.002V73.8971H135.072L138.939 68.0833H140V76H138.853V70.1939H138.783L134.924 76H133.866V68.0833ZM137.894 66.5H138.807C138.807 66.9355 138.658 67.2899 138.362 67.563C138.067 67.8336 137.669 67.9689 137.167 67.9689C136.667 67.9689 136.27 67.8336 135.976 67.563C135.681 67.2899 135.534 66.9355 135.534 66.5H136.443C136.443 66.6933 136.498 66.8647 136.606 67.0141C136.715 67.161 136.902 67.2345 137.167 67.2345C137.426 67.2345 137.612 67.161 137.723 67.0141C137.837 66.8672 137.894 66.6959 137.894 66.5Z" fill="white"/>
<path d="M102.229 72.0417C102.229 72.8644 102.085 73.5718 101.797 74.1638C101.509 74.7533 101.113 75.2073 100.611 75.5259C100.111 75.842 99.5432 76 98.9065 76C98.2674 76 97.6968 75.842 97.1946 75.5259C96.6949 75.2073 96.3009 74.752 96.0126 74.1601C95.7242 73.5681 95.5801 72.8619 95.5801 72.0417C95.5801 71.2189 95.7242 70.5128 96.0126 69.9233C96.3009 69.3313 96.6949 68.8773 97.1946 68.5612C97.6968 68.2426 98.2674 68.0833 98.9065 68.0833C99.5432 68.0833 100.111 68.2426 100.611 68.5612C101.113 68.8773 101.509 69.3313 101.797 69.9233C102.085 70.5128 102.229 71.2189 102.229 72.0417ZM101.127 72.0417C101.127 71.4146 101.029 70.8865 100.835 70.4576C100.642 70.0261 100.378 69.7 100.042 69.4793C99.7078 69.256 99.3294 69.1444 98.9065 69.1444C98.4813 69.1444 98.1016 69.256 97.7677 69.4793C97.4337 69.7 97.1694 70.0261 96.9748 70.4576C96.7826 70.8865 96.6865 71.4146 96.6865 72.0417C96.6865 72.6688 96.7826 73.1981 96.9748 73.6295C97.1694 74.0585 97.4337 74.3846 97.7677 74.6078C98.1016 74.8286 98.4813 74.9389 98.9065 74.9389C99.3294 74.9389 99.7078 74.8286 100.042 74.6078C100.378 74.3846 100.642 74.0585 100.835 73.6295C101.029 73.1981 101.127 72.6688 101.127 72.0417Z" fill="white"/>
</svg>
